<mxfile host="app.diagrams.net" modified="2020-12-08T12:35:08.438Z" agent="5.0 (Windows NT 10.0; Win64; x64) AppleWebKit/537.36 (KHTML, like Gecko) Chrome/87.0.4280.67 Safari/537.36 Edg/87.0.664.55" etag="FOv8iy7OaTC39IXAJ0F6" version="13.11.0" type="github">
  <diagram id="kgpKYQtTHZ0yAKxKKP6v" name="Page-1">
    <mxGraphModel dx="1422" dy="794" grid="1" gridSize="10" guides="1" tooltips="1" connect="1" arrows="1" fold="1" page="1" pageScale="1" pageWidth="850" pageHeight="1100" math="0" shadow="0">
      <root>
        <mxCell id="0" />
        <mxCell id="1" parent="0" />
        <mxCell id="zb_mOXyEJXAJImzSRlpn-51" value="" style="shape=umlLifeline;participant=umlActor;perimeter=lifelinePerimeter;whiteSpace=wrap;html=1;container=1;collapsible=0;recursiveResize=0;verticalAlign=top;spacingTop=36;outlineConnect=0;" vertex="1" parent="1">
          <mxGeometry x="70" y="70" width="20" height="950" as="geometry" />
        </mxCell>
        <mxCell id="zb_mOXyEJXAJImzSRlpn-52" value="" style="html=1;points=[];perimeter=orthogonalPerimeter;" vertex="1" parent="zb_mOXyEJXAJImzSRlpn-51">
          <mxGeometry x="5" y="50" width="10" height="900" as="geometry" />
        </mxCell>
        <mxCell id="zb_mOXyEJXAJImzSRlpn-53" value="" style="shape=umlLifeline;participant=umlBoundary;perimeter=lifelinePerimeter;whiteSpace=wrap;html=1;container=1;collapsible=0;recursiveResize=0;verticalAlign=top;spacingTop=36;outlineConnect=0;" vertex="1" parent="1">
          <mxGeometry x="220" y="70" width="50" height="880" as="geometry" />
        </mxCell>
        <mxCell id="zb_mOXyEJXAJImzSRlpn-54" value="" style="html=1;points=[];perimeter=orthogonalPerimeter;" vertex="1" parent="zb_mOXyEJXAJImzSRlpn-53">
          <mxGeometry x="20" y="70" width="10" height="800" as="geometry" />
        </mxCell>
        <mxCell id="zb_mOXyEJXAJImzSRlpn-55" value="" style="shape=umlLifeline;participant=umlControl;perimeter=lifelinePerimeter;whiteSpace=wrap;html=1;container=1;collapsible=0;recursiveResize=0;verticalAlign=top;spacingTop=36;outlineConnect=0;" vertex="1" parent="1">
          <mxGeometry x="415" y="70" width="40" height="870" as="geometry" />
        </mxCell>
        <mxCell id="zb_mOXyEJXAJImzSRlpn-56" value="" style="html=1;points=[];perimeter=orthogonalPerimeter;" vertex="1" parent="zb_mOXyEJXAJImzSRlpn-55">
          <mxGeometry x="15" y="80" width="10" height="760" as="geometry" />
        </mxCell>
        <mxCell id="zb_mOXyEJXAJImzSRlpn-57" value="" style="shape=umlLifeline;participant=umlEntity;perimeter=lifelinePerimeter;whiteSpace=wrap;html=1;container=1;collapsible=0;recursiveResize=0;verticalAlign=top;spacingTop=36;outlineConnect=0;" vertex="1" parent="1">
          <mxGeometry x="690" y="70" width="40" height="860" as="geometry" />
        </mxCell>
        <mxCell id="zb_mOXyEJXAJImzSRlpn-58" value="" style="html=1;points=[];perimeter=orthogonalPerimeter;" vertex="1" parent="zb_mOXyEJXAJImzSRlpn-57">
          <mxGeometry x="15" y="140" width="10" height="680" as="geometry" />
        </mxCell>
        <mxCell id="zb_mOXyEJXAJImzSRlpn-59" value="Pavlo: User" style="text;html=1;align=center;verticalAlign=middle;resizable=0;points=[];autosize=1;" vertex="1" parent="1">
          <mxGeometry x="40" y="30" width="80" height="20" as="geometry" />
        </mxCell>
        <mxCell id="zb_mOXyEJXAJImzSRlpn-60" value="Program.Main" style="text;html=1;align=center;verticalAlign=middle;resizable=0;points=[];autosize=1;" vertex="1" parent="1">
          <mxGeometry x="200" y="30" width="90" height="20" as="geometry" />
        </mxCell>
        <mxCell id="zb_mOXyEJXAJImzSRlpn-61" value="Form1: Fom" style="text;html=1;align=center;verticalAlign=middle;resizable=0;points=[];autosize=1;" vertex="1" parent="1">
          <mxGeometry x="395" y="30" width="80" height="20" as="geometry" />
        </mxCell>
        <mxCell id="zb_mOXyEJXAJImzSRlpn-62" value="DomAnalyse : IAnalyser" style="text;html=1;align=center;verticalAlign=middle;resizable=0;points=[];autosize=1;" vertex="1" parent="1">
          <mxGeometry x="640" y="40" width="140" height="20" as="geometry" />
        </mxCell>
        <mxCell id="zb_mOXyEJXAJImzSRlpn-63" value="" style="shape=umlLifeline;participant=umlEntity;perimeter=lifelinePerimeter;whiteSpace=wrap;html=1;container=1;collapsible=0;recursiveResize=0;verticalAlign=top;spacingTop=36;outlineConnect=0;" vertex="1" parent="1">
          <mxGeometry x="840" y="75" width="40" height="860" as="geometry" />
        </mxCell>
        <mxCell id="zb_mOXyEJXAJImzSRlpn-64" value="" style="html=1;points=[];perimeter=orthogonalPerimeter;" vertex="1" parent="zb_mOXyEJXAJImzSRlpn-63">
          <mxGeometry x="15" y="140" width="10" height="680" as="geometry" />
        </mxCell>
        <mxCell id="zb_mOXyEJXAJImzSRlpn-65" value="SaxAnalyse&amp;nbsp;: IAnalyser" style="text;html=1;align=center;verticalAlign=middle;resizable=0;points=[];autosize=1;" vertex="1" parent="1">
          <mxGeometry x="790" y="40" width="140" height="20" as="geometry" />
        </mxCell>
        <mxCell id="zb_mOXyEJXAJImzSRlpn-66" value="" style="shape=umlLifeline;participant=umlEntity;perimeter=lifelinePerimeter;whiteSpace=wrap;html=1;container=1;collapsible=0;recursiveResize=0;verticalAlign=top;spacingTop=36;outlineConnect=0;" vertex="1" parent="1">
          <mxGeometry x="1020" y="75" width="40" height="860" as="geometry" />
        </mxCell>
        <mxCell id="zb_mOXyEJXAJImzSRlpn-67" value="" style="html=1;points=[];perimeter=orthogonalPerimeter;" vertex="1" parent="zb_mOXyEJXAJImzSRlpn-66">
          <mxGeometry x="15" y="140" width="10" height="680" as="geometry" />
        </mxCell>
        <mxCell id="zb_mOXyEJXAJImzSRlpn-68" value="" style="shape=umlLifeline;participant=umlBoundary;perimeter=lifelinePerimeter;whiteSpace=wrap;html=1;container=1;collapsible=0;recursiveResize=0;verticalAlign=top;spacingTop=36;outlineConnect=0;" vertex="1" parent="1">
          <mxGeometry x="550" y="70" width="50" height="880" as="geometry" />
        </mxCell>
        <mxCell id="zb_mOXyEJXAJImzSRlpn-69" value="" style="html=1;points=[];perimeter=orthogonalPerimeter;" vertex="1" parent="zb_mOXyEJXAJImzSRlpn-68">
          <mxGeometry x="20" y="100" width="10" height="720" as="geometry" />
        </mxCell>
        <mxCell id="zb_mOXyEJXAJImzSRlpn-70" value="IAnalyser" style="text;html=1;align=center;verticalAlign=middle;resizable=0;points=[];autosize=1;" vertex="1" parent="1">
          <mxGeometry x="540" y="40" width="70" height="20" as="geometry" />
        </mxCell>
        <mxCell id="zb_mOXyEJXAJImzSRlpn-71" value="" style="shape=umlLifeline;participant=umlEntity;perimeter=lifelinePerimeter;whiteSpace=wrap;html=1;container=1;collapsible=0;recursiveResize=0;verticalAlign=top;spacingTop=36;outlineConnect=0;" vertex="1" parent="1">
          <mxGeometry x="1190" y="70" width="40" height="860" as="geometry" />
        </mxCell>
        <mxCell id="zb_mOXyEJXAJImzSRlpn-72" value="" style="html=1;points=[];perimeter=orthogonalPerimeter;" vertex="1" parent="zb_mOXyEJXAJImzSRlpn-71">
          <mxGeometry x="15" y="180" width="10" height="650" as="geometry" />
        </mxCell>
        <mxCell id="zb_mOXyEJXAJImzSRlpn-73" value="Student: Student" style="text;html=1;align=center;verticalAlign=middle;resizable=0;points=[];autosize=1;" vertex="1" parent="1">
          <mxGeometry x="1160" y="40" width="100" height="20" as="geometry" />
        </mxCell>
        <mxCell id="zb_mOXyEJXAJImzSRlpn-74" value="LinqToXmlAnalyse&amp;nbsp;: IAnalyser" style="text;html=1;align=center;verticalAlign=middle;resizable=0;points=[];autosize=1;" vertex="1" parent="1">
          <mxGeometry x="955" y="40" width="170" height="20" as="geometry" />
        </mxCell>
        <mxCell id="zb_mOXyEJXAJImzSRlpn-75" value="Run program" style="html=1;verticalAlign=bottom;startArrow=oval;startFill=1;endArrow=block;startSize=8;exitX=0.929;exitY=0.03;exitDx=0;exitDy=0;exitPerimeter=0;" edge="1" parent="1" source="zb_mOXyEJXAJImzSRlpn-52">
          <mxGeometry width="60" relative="1" as="geometry">
            <mxPoint x="250" y="190" as="sourcePoint" />
            <mxPoint x="240" y="145" as="targetPoint" />
          </mxGeometry>
        </mxCell>
        <mxCell id="zb_mOXyEJXAJImzSRlpn-76" value="Run(new Form())" style="html=1;verticalAlign=bottom;startArrow=oval;startFill=1;endArrow=block;startSize=8;exitX=1.606;exitY=0.052;exitDx=0;exitDy=0;exitPerimeter=0;" edge="1" parent="1" source="zb_mOXyEJXAJImzSRlpn-54">
          <mxGeometry width="60" relative="1" as="geometry">
            <mxPoint x="440" y="220" as="sourcePoint" />
            <mxPoint x="430" y="182" as="targetPoint" />
          </mxGeometry>
        </mxCell>
        <mxCell id="zb_mOXyEJXAJImzSRlpn-77" value="SearchBtn_Click" style="html=1;verticalAlign=bottom;startArrow=oval;startFill=1;endArrow=block;startSize=8;" edge="1" parent="1">
          <mxGeometry width="60" relative="1" as="geometry">
            <mxPoint x="90" y="240" as="sourcePoint" />
            <mxPoint x="430" y="240" as="targetPoint" />
          </mxGeometry>
        </mxCell>
        <mxCell id="zb_mOXyEJXAJImzSRlpn-78" value="DomAnalyse" style="html=1;verticalAlign=bottom;startArrow=oval;startFill=1;endArrow=block;startSize=8;exitX=1.524;exitY=0.154;exitDx=0;exitDy=0;exitPerimeter=0;" edge="1" parent="1" source="zb_mOXyEJXAJImzSRlpn-56" target="zb_mOXyEJXAJImzSRlpn-68">
          <mxGeometry width="60" relative="1" as="geometry">
            <mxPoint x="440" y="260" as="sourcePoint" />
            <mxPoint x="500" y="260" as="targetPoint" />
          </mxGeometry>
        </mxCell>
        <mxCell id="zb_mOXyEJXAJImzSRlpn-79" value="DomBtn,Cheked" style="html=1;verticalAlign=bottom;startArrow=oval;startFill=1;endArrow=block;startSize=8;" edge="1" parent="1">
          <mxGeometry width="60" relative="1" as="geometry">
            <mxPoint x="90" y="210" as="sourcePoint" />
            <mxPoint x="430" y="210" as="targetPoint" />
          </mxGeometry>
        </mxCell>
        <mxCell id="zb_mOXyEJXAJImzSRlpn-80" value="DomAnalyse" style="html=1;verticalAlign=bottom;startArrow=oval;startFill=1;endArrow=block;startSize=8;exitX=1.053;exitY=0.156;exitDx=0;exitDy=0;exitPerimeter=0;" edge="1" parent="1" source="zb_mOXyEJXAJImzSRlpn-69" target="zb_mOXyEJXAJImzSRlpn-57">
          <mxGeometry width="60" relative="1" as="geometry">
            <mxPoint x="660" y="300" as="sourcePoint" />
            <mxPoint x="500" y="260" as="targetPoint" />
          </mxGeometry>
        </mxCell>
        <mxCell id="zb_mOXyEJXAJImzSRlpn-81" value="return List&amp;lt;Students&amp;gt;" style="html=1;verticalAlign=bottom;endArrow=open;dashed=1;endSize=8;" edge="1" parent="1" target="zb_mOXyEJXAJImzSRlpn-55">
          <mxGeometry relative="1" as="geometry">
            <mxPoint x="710" y="350" as="sourcePoint" />
            <mxPoint x="630" y="350" as="targetPoint" />
          </mxGeometry>
        </mxCell>
        <mxCell id="zb_mOXyEJXAJImzSRlpn-82" value="&amp;nbsp;new Student()" style="html=1;verticalAlign=bottom;startArrow=oval;startFill=1;endArrow=block;startSize=8;exitX=0.965;exitY=0.155;exitDx=0;exitDy=0;exitPerimeter=0;" edge="1" parent="1" source="zb_mOXyEJXAJImzSRlpn-58" target="zb_mOXyEJXAJImzSRlpn-71">
          <mxGeometry width="60" relative="1" as="geometry">
            <mxPoint x="580" y="320" as="sourcePoint" />
            <mxPoint x="640" y="320" as="targetPoint" />
          </mxGeometry>
        </mxCell>
        <mxCell id="zb_mOXyEJXAJImzSRlpn-83" value="return TextBox" style="html=1;verticalAlign=bottom;endArrow=open;dashed=1;endSize=8;entryX=1.229;entryY=0.284;entryDx=0;entryDy=0;entryPerimeter=0;" edge="1" parent="1" target="zb_mOXyEJXAJImzSRlpn-54">
          <mxGeometry relative="1" as="geometry">
            <mxPoint x="435" y="367" as="sourcePoint" />
            <mxPoint x="260" y="370" as="targetPoint" />
          </mxGeometry>
        </mxCell>
        <mxCell id="zb_mOXyEJXAJImzSRlpn-84" value="return" style="html=1;verticalAlign=bottom;endArrow=open;dashed=1;endSize=8;" edge="1" parent="1" target="zb_mOXyEJXAJImzSRlpn-51">
          <mxGeometry relative="1" as="geometry">
            <mxPoint x="240" y="390" as="sourcePoint" />
            <mxPoint x="160" y="390" as="targetPoint" />
          </mxGeometry>
        </mxCell>
        <mxCell id="zb_mOXyEJXAJImzSRlpn-85" value="SearchBtn_Click" style="html=1;verticalAlign=bottom;startArrow=oval;startFill=1;endArrow=block;startSize=8;" edge="1" parent="1">
          <mxGeometry width="60" relative="1" as="geometry">
            <mxPoint x="90.68000000000006" y="460" as="sourcePoint" />
            <mxPoint x="430.67999999999984" y="460" as="targetPoint" />
          </mxGeometry>
        </mxCell>
        <mxCell id="zb_mOXyEJXAJImzSRlpn-86" value="SaxAnalyse" style="html=1;verticalAlign=bottom;startArrow=oval;startFill=1;endArrow=block;startSize=8;exitX=1.524;exitY=0.154;exitDx=0;exitDy=0;exitPerimeter=0;" edge="1" parent="1">
          <mxGeometry width="60" relative="1" as="geometry">
            <mxPoint x="445.9199999999996" y="487.0400000000002" as="sourcePoint" />
            <mxPoint x="575.1799999999998" y="487.0400000000002" as="targetPoint" />
          </mxGeometry>
        </mxCell>
        <mxCell id="zb_mOXyEJXAJImzSRlpn-87" value="SaxBtn,Cheked" style="html=1;verticalAlign=bottom;startArrow=oval;startFill=1;endArrow=block;startSize=8;" edge="1" parent="1">
          <mxGeometry width="60" relative="1" as="geometry">
            <mxPoint x="90.68000000000006" y="430" as="sourcePoint" />
            <mxPoint x="430.67999999999984" y="430" as="targetPoint" />
          </mxGeometry>
        </mxCell>
        <mxCell id="zb_mOXyEJXAJImzSRlpn-88" value="SaxAnalyse" style="html=1;verticalAlign=bottom;startArrow=oval;startFill=1;endArrow=block;startSize=8;exitX=1.053;exitY=0.156;exitDx=0;exitDy=0;exitPerimeter=0;" edge="1" parent="1" target="zb_mOXyEJXAJImzSRlpn-63">
          <mxGeometry width="60" relative="1" as="geometry">
            <mxPoint x="581.2099999999996" y="502.31999999999994" as="sourcePoint" />
            <mxPoint x="710.18" y="502.31999999999994" as="targetPoint" />
          </mxGeometry>
        </mxCell>
        <mxCell id="zb_mOXyEJXAJImzSRlpn-89" value="return List&amp;lt;Students&amp;gt;" style="html=1;verticalAlign=bottom;endArrow=open;dashed=1;endSize=8;" edge="1" parent="1" source="zb_mOXyEJXAJImzSRlpn-63">
          <mxGeometry relative="1" as="geometry">
            <mxPoint x="710.68" y="570" as="sourcePoint" />
            <mxPoint x="435.0035294117647" y="570" as="targetPoint" />
          </mxGeometry>
        </mxCell>
        <mxCell id="zb_mOXyEJXAJImzSRlpn-90" value="&amp;nbsp;new Student()" style="html=1;verticalAlign=bottom;startArrow=oval;startFill=1;endArrow=block;startSize=8;" edge="1" parent="1" source="zb_mOXyEJXAJImzSRlpn-64">
          <mxGeometry width="60" relative="1" as="geometry">
            <mxPoint x="580.68" y="540" as="sourcePoint" />
            <mxPoint x="1210.1799999999994" y="540" as="targetPoint" />
          </mxGeometry>
        </mxCell>
        <mxCell id="zb_mOXyEJXAJImzSRlpn-91" value="return TextBox" style="html=1;verticalAlign=bottom;endArrow=open;dashed=1;endSize=8;entryX=1.229;entryY=0.284;entryDx=0;entryDy=0;entryPerimeter=0;" edge="1" parent="1">
          <mxGeometry relative="1" as="geometry">
            <mxPoint x="435.67999999999984" y="587" as="sourcePoint" />
            <mxPoint x="252.97000000000003" y="587.2" as="targetPoint" />
          </mxGeometry>
        </mxCell>
        <mxCell id="zb_mOXyEJXAJImzSRlpn-92" value="return" style="html=1;verticalAlign=bottom;endArrow=open;dashed=1;endSize=8;" edge="1" parent="1">
          <mxGeometry relative="1" as="geometry">
            <mxPoint x="240.68000000000006" y="610" as="sourcePoint" />
            <mxPoint x="80.0035294117647" y="610" as="targetPoint" />
          </mxGeometry>
        </mxCell>
        <mxCell id="zb_mOXyEJXAJImzSRlpn-93" value="SearchBtn_Click" style="html=1;verticalAlign=bottom;startArrow=oval;startFill=1;endArrow=block;startSize=8;" edge="1" parent="1">
          <mxGeometry width="60" relative="1" as="geometry">
            <mxPoint x="90.68000000000006" y="700" as="sourcePoint" />
            <mxPoint x="430.67999999999984" y="700" as="targetPoint" />
          </mxGeometry>
        </mxCell>
        <mxCell id="zb_mOXyEJXAJImzSRlpn-94" value="LinqToXmlAnalyse" style="html=1;verticalAlign=bottom;startArrow=oval;startFill=1;endArrow=block;startSize=8;exitX=1.524;exitY=0.154;exitDx=0;exitDy=0;exitPerimeter=0;" edge="1" parent="1">
          <mxGeometry width="60" relative="1" as="geometry">
            <mxPoint x="445.9199999999996" y="727.0400000000002" as="sourcePoint" />
            <mxPoint x="575.1799999999998" y="727.0400000000002" as="targetPoint" />
          </mxGeometry>
        </mxCell>
        <mxCell id="zb_mOXyEJXAJImzSRlpn-95" value="LinqBtn,Cheked" style="html=1;verticalAlign=bottom;startArrow=oval;startFill=1;endArrow=block;startSize=8;" edge="1" parent="1">
          <mxGeometry width="60" relative="1" as="geometry">
            <mxPoint x="90.68000000000006" y="670" as="sourcePoint" />
            <mxPoint x="430.67999999999984" y="670" as="targetPoint" />
          </mxGeometry>
        </mxCell>
        <mxCell id="zb_mOXyEJXAJImzSRlpn-96" value="LinqToXmlAnalyse" style="html=1;verticalAlign=bottom;startArrow=oval;startFill=1;endArrow=block;startSize=8;exitX=1.053;exitY=0.156;exitDx=0;exitDy=0;exitPerimeter=0;" edge="1" parent="1" target="zb_mOXyEJXAJImzSRlpn-66">
          <mxGeometry width="60" relative="1" as="geometry">
            <mxPoint x="581.2099999999996" y="742.3199999999999" as="sourcePoint" />
            <mxPoint x="710.18" y="742.3199999999999" as="targetPoint" />
          </mxGeometry>
        </mxCell>
        <mxCell id="zb_mOXyEJXAJImzSRlpn-97" value="return List&amp;lt;Students&amp;gt;" style="html=1;verticalAlign=bottom;endArrow=open;dashed=1;endSize=8;" edge="1" parent="1" source="zb_mOXyEJXAJImzSRlpn-66">
          <mxGeometry relative="1" as="geometry">
            <mxPoint x="710.68" y="810" as="sourcePoint" />
            <mxPoint x="435.0035294117647" y="810" as="targetPoint" />
          </mxGeometry>
        </mxCell>
        <mxCell id="zb_mOXyEJXAJImzSRlpn-98" value="&amp;nbsp;new Student()" style="html=1;verticalAlign=bottom;startArrow=oval;startFill=1;endArrow=block;startSize=8;" edge="1" parent="1">
          <mxGeometry width="60" relative="1" as="geometry">
            <mxPoint x="1039.9999999999995" y="780" as="sourcePoint" />
            <mxPoint x="1210.1799999999994" y="780" as="targetPoint" />
          </mxGeometry>
        </mxCell>
        <mxCell id="zb_mOXyEJXAJImzSRlpn-99" value="return TextBox" style="html=1;verticalAlign=bottom;endArrow=open;dashed=1;endSize=8;entryX=1.229;entryY=0.284;entryDx=0;entryDy=0;entryPerimeter=0;" edge="1" parent="1">
          <mxGeometry relative="1" as="geometry">
            <mxPoint x="435.67999999999984" y="827" as="sourcePoint" />
            <mxPoint x="252.97000000000003" y="827.2" as="targetPoint" />
          </mxGeometry>
        </mxCell>
        <mxCell id="zb_mOXyEJXAJImzSRlpn-100" value="return" style="html=1;verticalAlign=bottom;endArrow=open;dashed=1;endSize=8;" edge="1" parent="1">
          <mxGeometry relative="1" as="geometry">
            <mxPoint x="240.68000000000006" y="850" as="sourcePoint" />
            <mxPoint x="80.0035294117647" y="850" as="targetPoint" />
          </mxGeometry>
        </mxCell>
      </root>
    </mxGraphModel>
  </diagram>
</mxfile>
